<svg xmlns="http://www.w3.org/2000/svg" version="1.1" xmlns:xlink="http://www.w3.org/1999/xlink" width="512" height="512" x="0" y="0" viewBox="0 0 504.123 504.123" style="enable-background:new 0 0 512 512" xml:space="preserve" class=""><g><path d="M168.785 335.557c-76.406-76.406-76.406-200.862 0-277.268s200.862-76.406 277.268 0 76.406 200.862 0 277.268-200.862 76.406-277.268 0z" style="" fill="#e0e4e8" data-original="#e0e4e8"></path><path d="m243.616 299.323-37.809-37.809L24.638 413.538c-21.268 18.117-22.055 49.625-3.151 69.317 19.692 19.692 51.2 18.117 69.317-3.151l152.812-180.381z" style="" fill="#fbbd5e" data-original="#fbbd5e"></path><path d="M55.358 504.123c-14.966 0-28.357-5.514-38.597-15.754-22.843-22.843-21.268-59.865 3.151-81.132l180.382-152.025c3.151-2.363 7.877-2.363 10.24.788l37.809 37.809c3.151 3.151 3.151 7.877.788 10.24L97.105 484.431c-10.24 12.603-25.994 19.692-41.747 19.692zm149.661-232.369L30.151 419.052C12.034 434.018 11.246 460.8 27 477.341c16.542 16.542 43.323 14.966 57.502-2.363l148.086-175.655-27.569-27.569z" style="" fill="#183651" data-original="#183651"></path><path d="M126.195 362.114h15.754v15.754h-15.754z" style="" transform="rotate(-134.999 134.072 369.993)" fill="#183651" data-original="#183651"></path><path d="M89.152 399.065h15.754v15.754H89.152z" style="" transform="rotate(-134.999 97.028 406.944)" fill="#183651" data-original="#183651"></path><path d="M52.658 436.572h15.754v15.754H52.658z" style="" transform="rotate(-134.999 60.534 444.451)" fill="#183651" data-original="#183651"></path><path d="M267.247 156.751v-40.96l-30.72-3.938c-2.363-10.24-6.302-18.905-11.815-27.569l18.905-24.418-29.146-29.146-24.418 18.905c-8.665-5.514-18.117-8.665-27.569-11.815l-3.938-30.72h-40.96l-3.151 31.508c-10.24 2.363-18.905 6.302-27.569 11.815L62.447 30.72 33.302 59.865l18.905 24.418c-5.514 8.665-8.665 18.117-11.815 27.569l-30.72 3.938v40.96l30.72 3.938c2.363 10.24 6.302 18.905 11.815 27.569l-18.905 24.418 29.145 29.145 24.418-18.905c8.665 5.514 18.117 8.665 27.569 11.815l3.938 30.72h40.96l3.938-30.72c10.24-2.363 18.905-6.302 27.569-11.815l24.418 18.905 29.145-29.145-18.905-24.418c5.514-8.665 8.665-18.117 11.815-27.569l29.935-3.937z" style="" fill="#ffffff" data-original="#ffffff" class=""></path><path d="M159.333 272.542h-40.96c-3.938 0-7.089-3.151-7.877-7.089l-3.151-25.206c-7.089-2.363-13.391-4.726-19.692-7.877l-20.48 15.754c-3.151 2.363-7.877 2.363-10.24-.788l-29.145-29.145c-3.151-3.151-3.151-7.089-.788-10.24l15.754-19.692c-3.151-6.302-6.302-13.391-7.877-19.692l-25.206-3.151c-3.938-.788-7.089-3.938-7.089-7.877v-40.96c0-3.938 3.151-7.089 7.089-7.877l25.206-3.151c2.363-7.089 4.726-13.391 7.877-19.692L27.001 66.166c-2.363-4.726-1.575-8.665.788-11.815l29.145-29.145c3.151-2.363 7.089-3.151 10.24-.788l19.692 15.754c6.302-3.151 13.391-6.302 19.692-7.877l3.151-25.206C110.496 3.151 113.647 0 117.585 0h40.96c3.938 0 7.089 3.151 7.877 7.089l3.151 25.206c7.089 2.363 13.391 4.726 19.692 7.877l19.692-15.754c3.151-2.363 7.877-2.363 10.24.788l29.145 29.145c3.151 3.151 3.151 7.089.788 10.24l-15.754 19.692c3.151 6.302 6.302 13.391 7.877 19.692l25.206 3.151c3.938.788 7.089 3.938 7.089 7.877v40.96c0 3.938-3.151 7.089-7.089 7.877l-25.206 3.151c-2.363 7.089-4.726 13.391-7.877 19.692l15.754 19.692c2.363 3.151 2.363 7.877-.788 10.24l-29.145 29.145c-3.151 3.151-7.089 3.151-10.24.788l-19.692-15.754c-6.302 3.151-13.391 6.302-19.692 7.877l-3.151 25.206c.788 6.301-3.151 8.665-7.089 8.665zm-33.871-15.754h27.569l3.151-23.631c0-3.151 2.363-5.514 5.514-6.302 8.665-2.363 17.329-5.514 25.994-10.24 3.151-1.575 6.302-1.575 8.665.788l18.905 14.966 19.692-19.692-15.754-19.692c-2.363-2.363-2.363-6.302-.788-8.665 4.726-7.877 8.665-16.542 10.24-25.994.788-3.151 3.151-5.514 6.302-5.514l23.631-3.151v-27.569l-23.631-3.151c-3.151 0-5.514-2.363-6.302-5.514-2.363-8.665-5.514-17.329-10.24-25.994-1.575-3.151-1.575-6.302.788-8.665l14.966-18.905-19.692-19.692-18.905 14.966c-2.363 2.363-6.302 2.363-8.665.788-7.877-4.726-16.542-8.665-25.994-10.24-3.151-.788-5.514-3.151-5.514-6.302l-3.151-23.631h-27.569l-3.151 23.631c0 3.151-2.363 5.514-5.514 6.302-8.665 2.363-17.329 6.302-25.206 11.028-3.151 1.575-6.302 1.575-8.665-.788L63.234 41.748 44.33 60.652l14.966 18.905c2.363 2.363 2.363 6.302.788 8.665-4.726 7.877-8.665 16.542-10.24 25.994-.788 3.151-3.151 5.514-6.302 5.514l-23.631 3.151v27.569l23.631 3.151c3.151.788 5.514 2.363 6.302 5.514 2.363 8.665 5.514 17.329 10.24 25.994 1.575 3.151 1.575 6.302-.788 8.665L44.33 212.677l19.692 19.692 18.905-14.966c2.363-2.363 6.302-2.363 8.665-.788 7.877 4.726 16.542 8.665 25.994 10.24 3.151.788 5.514 3.151 5.514 6.302l2.362 23.631z" style="" fill="#183651" data-original="#183651"></path><circle cx="138.853" cy="136.271" r="71.68" style="" fill="#f06151" data-original="#f06151"></circle><circle cx="138.853" cy="136.271" r="28.357" style="" fill="#ffffff" data-original="#ffffff" class=""></circle><path d="M138.853 172.505c-20.48 0-36.234-16.542-36.234-36.234 0-20.48 16.542-36.234 36.234-36.234s36.234 16.542 36.234 36.234c0 20.48-15.754 36.234-36.234 36.234zm0-56.714c-11.815 0-20.48 9.452-20.48 20.48 0 11.815 9.452 20.48 20.48 20.48 11.815 0 20.48-9.452 20.48-20.48.788-11.028-8.665-20.48-20.48-20.48z" style="" fill="#183651" data-original="#183651"></path><path d="M496.465 385.969v-40.96l-30.72-3.938c-2.363-10.24-6.302-18.905-11.815-27.569l18.905-24.418-29.145-29.145-24.418 18.905c-8.665-5.514-18.117-8.665-27.569-11.815l-3.938-30.72h-40.96l-3.938 30.72c-10.24 2.363-18.905 6.302-27.569 11.815l-24.418-18.905-29.145 29.145 18.905 24.418c-5.514 8.665-8.665 18.117-11.815 27.569l-30.72 3.938v40.96l30.72 3.938c2.363 10.24 6.302 18.905 11.815 27.569l-18.905 24.418 29.145 29.145 24.418-18.905c8.665 5.514 18.117 8.665 27.569 11.815l3.938 30.72h40.96l3.938-30.72c10.24-2.363 18.905-6.302 27.569-11.815l24.418 18.905 29.145-29.145-18.905-24.418c5.514-8.665 8.665-18.117 11.815-27.569l30.72-3.938z" style="" fill="#ffffff" data-original="#ffffff" class=""></path><path d="M388.551 501.76h-40.96c-3.938 0-7.089-3.151-7.877-7.089l-3.151-25.206c-7.089-2.363-13.391-4.726-19.692-7.877l-19.692 15.754c-3.151 2.363-7.877 2.363-10.24-.788l-29.145-29.145c-3.151-3.151-3.151-7.089-.788-10.24l15.754-19.692c-3.151-6.302-6.302-13.391-7.877-19.692l-25.206-3.151c-3.938-.788-7.089-3.938-7.089-7.877v-40.96c0-3.938 3.151-7.089 7.089-7.877l25.206-3.151c2.363-7.089 4.726-13.391 7.877-19.692l-15.754-19.692c-2.363-3.151-2.363-7.877.788-10.24L286.939 256c3.151-3.151 7.089-3.151 10.24-.788l19.692 15.754c6.302-3.151 13.391-6.302 19.692-7.877l3.151-25.206c.788-3.938 3.938-7.089 7.877-7.089h40.96c3.938 0 7.089 3.151 7.877 7.089l3.151 25.206c7.089 2.363 13.391 4.726 19.692 7.877l19.692-15.754c3.151-2.363 7.877-2.363 10.24.788l29.145 29.145c3.151 3.151 3.151 7.089.788 10.24l-15.754 19.692c3.151 6.302 6.302 13.391 7.877 19.692l25.206 3.151c3.938.788 7.089 3.938 7.089 7.877v40.96c0 3.938-3.151 7.089-7.089 7.877l-25.206 3.151c-2.363 7.089-4.726 13.391-7.877 19.692l15.754 19.692c2.363 3.151 2.363 7.877-.788 10.24l-28.357 29.145c-3.151 3.151-7.089 3.151-10.24.788l-19.692-15.754c-6.302 3.151-13.391 6.302-19.692 7.877l-3.151 25.206c-1.575 3.938-4.726 7.089-8.665 7.089zm-34.658-15.754h27.569l3.151-23.631c.788-3.151 2.363-5.514 5.514-6.302 8.665-2.363 17.329-5.514 25.994-10.24 3.151-1.575 6.302-1.575 8.665.788l18.905 14.966 19.692-19.692-14.966-18.905c-2.363-2.363-2.363-6.302-.788-8.665 4.726-7.877 8.665-16.542 10.24-25.994.788-3.151 3.151-5.514 6.302-5.514l23.631-3.151v-27.569l-23.631-3.151c-3.151 0-5.514-2.363-6.302-5.514-2.363-8.665-5.514-17.329-10.24-25.994-1.575-3.151-1.575-6.302.788-8.665l14.966-18.905-19.692-19.692-18.905 14.966c-2.363 2.363-6.302 2.363-8.665.788-7.877-4.726-16.542-8.665-25.994-10.24-3.151-.788-5.514-3.151-5.514-6.302l-3.151-23.631h-27.569l-3.151 23.631c-.788 3.151-2.363 5.514-5.514 6.302-8.665 2.363-17.329 5.514-25.994 10.24-3.151 1.575-6.302 1.575-8.665-.788l-18.905-14.966-19.692 19.692 14.966 18.905c2.363 2.363 2.363 6.302.788 8.665-4.726 7.877-8.665 16.542-10.24 25.994-.788 3.151-3.151 5.514-6.302 5.514l-23.631 3.151v27.569l23.631 3.151c3.151 0 5.514 2.363 6.302 5.514 2.363 8.665 5.514 17.329 10.24 25.206 1.575 3.151 1.575 6.302-.788 8.665l-14.966 18.905 19.692 19.692 18.905-14.966c2.363-2.363 6.302-2.363 8.665-.788 7.877 4.726 16.542 8.665 25.994 10.24 3.151.788 5.514 3.151 5.514 6.302l3.151 24.419z" style="" fill="#183651" data-original="#183651"></path><circle cx="368.071" cy="365.489" r="71.68" style="" fill="#f06151" data-original="#f06151"></circle><circle cx="368.071" cy="365.489" r="28.357" style="" fill="#ffffff" data-original="#ffffff" class=""></circle><path d="M368.071 401.723c-20.48 0-36.234-16.542-36.234-36.234 0-20.48 16.542-36.234 36.234-36.234 20.48 0 36.234 16.542 36.234 36.234 0 19.693-16.541 36.234-36.234 36.234zm0-57.501c-11.815 0-20.48 9.452-20.48 20.48s9.452 20.48 20.48 20.48 20.48-9.452 20.48-20.48-9.452-20.48-20.48-20.48z" style="" fill="#183651" data-original="#183651"></path><circle cx="307.419" cy="196.923" r="161.477" style="" fill="#2ea0da" data-original="#2ea0da"></circle><path d="M307.419 366.277c-44.898 0-87.434-17.329-119.729-49.625s-49.625-74.831-49.625-119.729 17.329-87.434 49.625-119.729 74.831-49.625 119.729-49.625 87.434 17.329 119.729 49.625 49.625 74.831 49.625 119.729-17.329 87.434-49.625 119.729-74.83 49.625-119.729 49.625zm0-322.954c-40.96 0-79.557 15.754-108.702 44.898s-44.898 67.742-44.898 108.702 15.754 79.557 44.898 108.702 67.742 44.898 108.702 44.898 79.557-15.754 108.702-44.898 44.898-67.742 44.898-108.702-15.754-79.557-44.898-108.702-67.742-44.898-108.702-44.898z" style="" fill="#183651" data-original="#183651"></path><path d="M217.622 286.72c-49.625-49.625-49.625-129.969 0-179.594s129.969-49.625 179.594 0 49.625 129.969 0 179.594-129.969 49.625-179.594 0z" style="" fill="#ffffff" data-original="#ffffff" class=""></path><path d="M244.404 178.018v49.625h-10.24v-49.625h-17.329v-8.665h45.686v8.665h-18.117zM301.905 227.643h-8.665v-6.302c-3.938 4.726-8.665 6.302-14.966 6.302-4.726 0-8.665-1.575-11.815-3.938-3.151-2.363-4.726-6.302-4.726-10.24 0-4.726 1.575-7.877 4.726-9.452 3.151-2.363 7.877-3.151 13.391-3.151h11.815v-1.575c0-6.302-3.151-8.665-10.24-8.665-3.938 0-8.665 1.575-12.603 4.726l-3.938-5.514c5.514-3.938 11.815-6.302 18.117-6.302 5.514 0 9.452 1.575 12.603 3.938 3.151 2.363 4.726 7.089 4.726 12.603v27.569h1.575zm-9.452-16.541v-3.938h-10.24c-7.089 0-10.24 2.363-10.24 6.302 0 2.363.788 3.938 2.363 4.726 1.575.788 3.938 1.575 7.089 1.575 3.151 0 5.514-.788 7.877-2.363 1.576-1.576 3.151-3.152 3.151-6.302zM346.804 214.252c0 3.938-1.575 7.877-4.726 10.24-3.151 2.363-7.089 3.938-11.815 3.938-3.151 0-6.302-.788-10.24-1.575-3.151-.788-6.302-3.151-9.452-4.726l4.726-7.089c5.514 3.938 10.24 5.514 14.966 5.514 2.363 0 3.938-.788 4.726-1.575 1.575-.788 1.575-2.363 1.575-3.938 0-2.363-3.151-3.938-8.665-6.302h-.788c-9.452-2.363-14.178-7.089-14.178-12.603 0-3.938 1.575-7.089 4.726-10.24 3.151-2.363 7.089-3.938 12.603-3.938 5.514 0 10.24 1.575 14.966 4.726l-3.151 7.089c-3.938-2.363-7.877-3.938-11.815-3.938-2.363 0-3.938.788-5.514 1.575-1.575.788-2.363 2.363-2.363 3.938s.788 2.363 2.363 3.151c.788.788 2.363.788 3.938 1.575 1.575.788 3.151.788 4.726 1.575 1.575.788 2.363.788 3.938 1.575 1.575.788 2.363 1.575 3.938 2.363 3.94 1.576 5.516 4.727 5.516 8.665zM366.496 227.643h-9.452v-62.228h9.452v36.234l18.117-18.905h11.815l-16.542 18.117 18.117 26.782h-11.028l-13.391-19.692-7.089 7.089v12.603z" style="" fill="#183651" data-original="#183651"></path></g></svg>